<svg width="20" height="16" viewBox="0 0 20 16" fill="none" xmlns="http://www.w3.org/2000/svg">
<path d="M12.0643 4.6559C10.029 3.48084 7.74527 3.17955 5.6081 3.59993L4.99743 1.30539C4.79387 0.540543 3.76864 0.400724 3.37266 1.08658L0.885564 5.39436C0.640858 5.8182 0.786256 6.36452 1.20867 6.6084L5.50193 9.08712C6.18547 9.48176 7.0116 8.84903 6.80804 8.08418L6.19091 5.76536C7.77457 5.48779 9.45431 5.71779 10.9596 6.5869C13.3866 7.9881 14.6647 10.6166 14.4796 13.2429C14.4378 13.7942 14.8048 14.2937 15.3469 14.4012C15.9945 14.5388 16.6314 14.0742 16.6882 13.4083C16.9244 9.94844 15.2516 6.49609 12.0643 4.6559Z" fill="#8A8E95"/>
</svg>
