<svg width="19" height="16" viewBox="0 0 19 16" fill="none" xmlns="http://www.w3.org/2000/svg">
<path d="M7.34821 4.6559C9.38348 3.48084 11.6672 3.17955 13.8044 3.59993L14.415 1.30539C14.6186 0.540543 15.6438 0.400724 16.0398 1.08658L18.5269 5.39436C18.7716 5.8182 18.6262 6.36452 18.2038 6.6084L13.9105 9.08712C13.227 9.48176 12.4009 8.84903 12.6044 8.08418L13.2216 5.76536C11.6379 5.48779 9.95816 5.71779 8.45283 6.5869C6.02587 7.9881 4.74782 10.6166 4.93287 13.2429C4.97466 13.7942 4.6077 14.2937 4.06558 14.4012C3.41795 14.5388 2.78108 14.0742 2.7243 13.4083C2.48809 9.94844 4.16091 6.4961 7.34821 4.6559Z" fill="#8A8E95"/>
</svg>
