<svg xmlns="http://www.w3.org/2000/svg" viewBox="0 0 439.19 140.13"><title>indivibook_white</title><g id="bcaeed7a-4c4f-43f7-a01e-4b7626c9e189" data-name="Layer 2"><g id="98f7c0c4-f51b-4806-8bee-f37b07278895" data-name="Layer 1"><path d="M7.7,35.11a5.59,5.59,0,0,1,1.55-3.95,5.18,5.18,0,0,1,3.95-1.65,5.67,5.67,0,0,1,4.1,1.65A5.33,5.33,0,0,1,19,35.11a4.85,4.85,0,0,1-1.7,3.8,6,6,0,0,1-4.1,1.5,5.44,5.44,0,0,1-3.95-1.5A5.06,5.06,0,0,1,7.7,35.11Zm1.7,15.2h8v50h-8Z" transform="translate(-7.7)" fill="#0794bc"/><path d="M64.1,100.31V71.81q0-7.8-2.25-11.75t-8.25-4A13.27,13.27,0,0,0,44.85,59,15.19,15.19,0,0,0,40,66.11v34.2H32v-50h5.6l1.5,6.1h.4A18.18,18.18,0,0,1,46,51.16a21.2,21.2,0,0,1,9.65-2,24.78,24.78,0,0,1,7.2,1A10.87,10.87,0,0,1,68,53.41a16,16,0,0,1,3.1,6.45,41.78,41.78,0,0,1,1,10.25v30.2Z" transform="translate(-7.7)" fill="#0794bc"/><path d="M122.6,83.11c0,3.4,0,6.49.1,9.25a45.9,45.9,0,0,0,.9,8.15h-5.4l-2-7.1h-.4a16.11,16.11,0,0,1-5.8,5.8,16.81,16.81,0,0,1-8.9,2.3q-10,0-14.85-6.3T81.4,75.51q0-12.8,6-19.45t16.65-6.65a34.33,34.33,0,0,1,5.85.4,30.66,30.66,0,0,1,4.65,1.3V30.31h8Zm-20.2,11.4a11.78,11.78,0,0,0,8.1-2.65q3-2.64,4.1-8V59a11.28,11.28,0,0,0-4.1-2,25.06,25.06,0,0,0-6.1-.6q-6.9,0-10.8,4.55T89.7,75.51a41,41,0,0,0,.65,7.6,17.77,17.77,0,0,0,2.15,6,11.07,11.07,0,0,0,4,4A11.43,11.43,0,0,0,102.4,94.51Z" transform="translate(-7.7)" fill="#0794bc"/><path d="M135.5,35.11a5.54,5.54,0,0,1,1.55-3.95A5.18,5.18,0,0,1,141,29.51a5.68,5.68,0,0,1,4.1,1.65,5.33,5.33,0,0,1,1.7,3.95,4.85,4.85,0,0,1-1.7,3.8,6,6,0,0,1-4.1,1.5,5.44,5.44,0,0,1-3.95-1.5A5,5,0,0,1,135.5,35.11Zm1.7,15.2h8v50h-8Z" transform="translate(-7.7)" fill="#0794bc"/><path d="M174.2,79.61l2.8,9.5h.1l2.5-9.7,11.2-29.1h8.6l-21.3,51.1h-3.4L153,50.31h9.2Z" transform="translate(-7.7)" fill="#0794bc"/><path d="M205.5,35.11a5.54,5.54,0,0,1,1.55-3.95A5.18,5.18,0,0,1,211,29.51a5.68,5.68,0,0,1,4.1,1.65,5.33,5.33,0,0,1,1.7,3.95,4.85,4.85,0,0,1-1.7,3.8,6,6,0,0,1-4.1,1.5,5.44,5.44,0,0,1-3.95-1.5A5,5,0,0,1,205.5,35.11Zm1.7,15.2h8v50h-8Z" transform="translate(-7.7)" fill="#0794bc"/><path d="M254,30.31h8v24.9h.4a15.43,15.43,0,0,1,5.85-4.5,18.72,18.72,0,0,1,7.75-1.6q9.69,0,14.55,6.2t4.85,19.2q0,13.11-6.4,19.9t-18,6.8a39.75,39.75,0,0,1-10.15-1.2,26.45,26.45,0,0,1-6.85-2.6Zm20.6,25.8a11.63,11.63,0,0,0-8.1,2.8,16,16,0,0,0-4.5,7.9V92a14.79,14.79,0,0,0,4.6,1.65,27.7,27.7,0,0,0,5.6.55,13.48,13.48,0,0,0,10.85-4.8q4.05-4.8,4.05-15a36.69,36.69,0,0,0-.7-7.3,17.67,17.67,0,0,0-2.2-5.8,11.46,11.46,0,0,0-3.85-3.8A11.11,11.11,0,0,0,274.6,56.11Z" transform="translate(-7.7)" fill="#efefef"/><path d="M302.7,75.31q0-12.69,5.64-19.45t16.25-6.75A23.79,23.79,0,0,1,334.34,51a17.84,17.84,0,0,1,6.86,5.3,23,23,0,0,1,4,8.3,41.84,41.84,0,0,1,1.3,10.75q0,12.7-5.66,19.45t-16.25,6.75a23.69,23.69,0,0,1-9.75-1.85,17.6,17.6,0,0,1-6.84-5.3,22.76,22.76,0,0,1-4-8.3A41.29,41.29,0,0,1,302.7,75.31Zm8.3,0a34.69,34.69,0,0,0,.75,7.3,19.3,19.3,0,0,0,2.34,6.1,12.59,12.59,0,0,0,4.2,4.2,11.8,11.8,0,0,0,6.3,1.6q13.61.1,13.61-19.2a35.3,35.3,0,0,0-.75-7.4,19.26,19.26,0,0,0-2.36-6.1,11.65,11.65,0,0,0-10.5-5.7Q311,56,311,75.31Z" transform="translate(-7.7)" fill="#efefef"/><path d="M353.79,75.31q0-12.69,5.65-19.45t16.25-6.75A23.79,23.79,0,0,1,385.44,51a17.73,17.73,0,0,1,6.85,5.3,22.83,22.83,0,0,1,4,8.3,41.4,41.4,0,0,1,1.3,10.75q0,12.7-5.65,19.45t-16.25,6.75a23.69,23.69,0,0,1-9.75-1.85,17.71,17.71,0,0,1-6.85-5.3,22.92,22.92,0,0,1-4-8.3A41.73,41.73,0,0,1,353.79,75.31Zm8.3,0a34.69,34.69,0,0,0,.75,7.3,19.31,19.31,0,0,0,2.35,6.1,12.59,12.59,0,0,0,4.2,4.2,11.8,11.8,0,0,0,6.3,1.6q13.6.1,13.6-19.2a35.3,35.3,0,0,0-.75-7.4,19.26,19.26,0,0,0-2.35-6.1,11.65,11.65,0,0,0-10.5-5.7Q362.1,56,362.09,75.31Z" transform="translate(-7.7)" fill="#efefef"/><path d="M420.29,77.81h-4.6v22.5h-8v-70h8v42.6l4.1-1.4,15.5-21.2h9.3l-15.3,20.1-4.1,3.3,5,4,16.7,22.6H437Z" transform="translate(-7.7)" fill="#efefef"/><rect x="223.52" width="7.36" height="140.13" fill="#ed6d13"/></g></g></svg>