<?xml version="1.0" encoding="utf-8"?>
<!-- Generator: Adobe Illustrator 22.0.1, SVG Export Plug-In . SVG Version: 6.00 Build 0)  -->
<svg version="1.1" id="Layer_1" xmlns="http://www.w3.org/2000/svg" xmlns:xlink="http://www.w3.org/1999/xlink" x="0px" y="0px"
	 viewBox="0 0 34 26" style="enable-background:new 0 0 34 26;" xml:space="preserve">
<style type="text/css">
	.st0{fill:#8A8E95;}
</style>
<title>book</title>
<desc>Created with Sketch.</desc>
<path class="st0" d="M11.7,0H5.2C4.9,0,4.7,0.1,4.5,0.2C4.3,0.4,4.1,0.6,4.1,0.9V26h8.7V0.9c0-0.3-0.2-0.5-0.4-0.7
	C12.2,0.1,11.9,0,11.7,0L11.7,0z"/>
<path class="st0" d="M29.9,24.3l-6-15.9c0-0.1-0.1-0.2-0.2-0.3c-0.1-0.1-0.2-0.1-0.3-0.2c-0.1,0-0.2-0.1-0.3-0.1
	c-0.1,0-0.2,0-0.3,0.1l-3.1,1.2v-4c0-0.2-0.1-0.5-0.3-0.6c-0.2-0.2-0.4-0.3-0.6-0.3h-4.3V26h5.2V10.1l6,15.9L29.9,24.3z"/>
</svg>
