<?xml version="1.0" encoding="utf-8"?>
<!-- Generator: Adobe Illustrator 22.0.1, SVG Export Plug-In . SVG Version: 6.00 Build 0)  -->
<svg version="1.1" id="Capa_1" xmlns="http://www.w3.org/2000/svg" xmlns:xlink="http://www.w3.org/1999/xlink" x="0px" y="0px"
	 viewBox="0 0 512 512" style="enable-background:new 0 0 512 512;" xml:space="preserve">
<style type="text/css">
	.st0{fill:none;}
	.st1{fill:#F9F7F7;}
</style>
<g>
	<title>opacity</title>
	<desc>Created with Sketch.</desc>
	<g id="Icons_1_">
		<g id="Rounded_1_" transform="translate(-138.000000, -332.000000)">
			<g id="Action_1_" transform="translate(100.000000, 100.000000)">
				<g id="_x2D_Round-_x2F_-Action-_x2F_-opacity_1_" transform="translate(34.000000, 230.000000)">
					<g>
						<path id="Shape_1_" class="st0" d="M560-12H-20v580h580V-12z M560-12H-20v580h580V-12z M-20,568h580V-12H-20V568z"/>
						<path id="_xD83D__xDD39_Icon-Color_1_" class="st1" d="M406.8,181.3L287.2,61.9c-9.4-9.4-24.6-9.4-34.1,0L133.2,181.3
							c-37.7,37.7-56.6,88-56.6,136.3s18.9,99.3,56.6,137c37.7,37.7,87.2,56.8,136.8,56.8s99.1-19.1,136.8-56.8
							c37.7-37.7,56.6-88.7,56.6-137S444.5,219,406.8,181.3z M125,326.3c0.2-48.3,15-79,42.5-106.3L270,115.4l102.5,105.8
							C400,248.3,414.8,278,415,326.3H125z"/>
					</g>
				</g>
			</g>
		</g>
	</g>
</g>
</svg>
