<svg width="16" height="16" viewBox="0 0 16 16" fill="none" xmlns="http://www.w3.org/2000/svg">
<path d="M0 1C0 0.447715 0.447715 0 1 0H6C6.55228 0 7 0.447715 7 1V15C7 15.5523 6.55228 16 6 16H1C0.447715 16 0 15.5523 0 15V1Z" fill="#8A8E95"/>
<path d="M15.7075 11.89L11.8175 8L15.7075 4.11C16.0975 3.72 16.0975 3.09 15.7075 2.7C15.3175 2.31 14.6875 2.31 14.2975 2.7L9.7075 7.29C9.3175 7.68 9.3175 8.31 9.7075 8.7L14.2975 13.3C14.6875 13.69 15.3175 13.69 15.7075 13.3C16.0875 12.91 16.0875 12.27 15.7075 11.89Z" fill="#8A8E95"/>
</svg>
