<?xml version="1.0" encoding="UTF-8"?>
<svg width="34px" height="26px" viewBox="0 0 34 26" version="1.1" xmlns="http://www.w3.org/2000/svg" xmlns:xlink="http://www.w3.org/1999/xlink">
    <!-- Generator: Sketch 55.1 (78136) - https://sketchapp.com -->
    <title>book</title>
    <desc>Created with Sketch.</desc>
    <g id="Page-1" stroke="none" stroke-width="1" fill="none" fill-rule="evenodd">
        <g id="book" fill="#8A8E95">
            <path d="M32.9958495,0 L20.9056887,0 C19.2863322,0 17.8452062,0.741699209 16.9365221,1.88732525 C16.027838,0.741699209 14.586712,0 12.9673555,0 L1.00415052,0 C0.449611736,0 0,0.428521905 0,0.957126851 L0,25.0428101 C0,25.571415 0.449611736,26 1.00415052,26 L32.9958495,26 C33.5503883,26 34,25.571415 34,25.0428101 L34,0.957126851 C34,0.428521905 33.5503883,0 32.9958495,0 Z M2.00830104,24.0279509 L2.00830104,22.0401217 L13.0777076,22.0401217 C14.3294886,22.0401217 15.6494768,22.9687229 16.0593274,24.0279509 L2.00830104,24.0279509 Z M16.0593274,21.0373993 C15.2439264,20.4649647 14.2375927,20.0437271 13.1494873,20.0437271 L2.00830104,20.0437901 L2.00830104,2 L12.9673555,2 C14.6023253,2 16.0593274,3.18228754 16.0593274,4.74066941 L16.0593274,21.0373993 Z M18.0676284,24.0279509 C18.477479,22.9687229 19.6539739,22.0401217 20.9056887,22.0401217 L31.9917651,22.0401217 L31.9917651,24.0279509 L18.0676284,24.0279509 Z M31.9917651,20.0437271 L20.9774684,20.0437271 C19.8892969,20.0437271 18.8113157,20.4649647 17.9958487,21.0373363 L17.9958487,4.74066941 C17.9958487,3.18222448 19.2707851,2.00006306 20.9056887,2.00006306 L31.9917651,2.00006306 L31.9917651,20.0437271 Z" id="Shape" fill-rule="nonzero"></path>
            <path d="M13.1009159,14 L6.89908406,14 C6.40256788,14 6,14.4477533 6,15 C6,15.5522467 6.40256788,16 6.89908406,16 L13.1009159,16 C13.5974321,16 14,15.5522467 14,15 C14,14.4477533 13.5974914,14 13.1009159,14 Z" id="Path" fill-rule="nonzero"></path>
            <circle id="Oval" cx="4" cy="7" r="1"></circle>
            <circle id="Oval-Copy" cx="4" cy="11" r="1"></circle>
            <circle id="Oval-Copy-2" cx="4" cy="15" r="1"></circle>
            <path d="M13.1009159,10 L6.89908406,10 C6.40256788,10 6,10.4477533 6,11 C6,11.5522467 6.40256788,12 6.89908406,12 L13.1009159,12 C13.5974321,12 14,11.5522467 14,11 C14,10.4477533 13.5974914,10 13.1009159,10 Z" id="Path" fill-rule="nonzero"></path>
            <path d="M13.1009159,6 L6.89908406,6 C6.40256788,6 6,6.44775333 6,7 C6,7.55224667 6.40256788,8 6.89908406,8 L13.1009159,8 C13.5974321,8 14,7.55224667 14,7 C14,6.44775333 13.5974914,6 13.1009159,6 Z" id="Path" fill-rule="nonzero"></path>
            <polygon id="Path-2" points="23 2 23 10 26.058241 7.90098968 29 10 29 2.00008396"></polygon>
        </g>
    </g>
</svg>