<?xml version="1.0" encoding="utf-8"?>
<!DOCTYPE svg PUBLIC "-//W3C//DTD SVG 20010904//EN" "http://www.w3.org/TR/2001/REC-SVG-20010904/DTD/svg10.dtd">
<svg version="1.0" xmlns="http://www.w3.org/2000/svg" width="256px" height="256px" viewBox="0 0 256 256" preserveAspectRatio="xMidYMid meet">
 <g fill="#868a91">
  <path d="M72.8 245.9 c-2.2 -2.3 -4.4 -5.2 -4.9 -6.6 -1.4 -3.8 -1.2 -76.6 0.3 -80 1.7 -4 4.5 -7.5 7.6 -9.5 2.5 -1.6 6.5 -1.8 50 -1.8 51.7 0 49.8 -0.2 55.7 6 l3 3.1 0.3 40.7 c0.2 38.2 0.1 40.9 -1.6 44.2 -1.1 1.9 -3.4 4.5 -5.2 5.8 l-3.3 2.2 -49 0 -49 0 -3.9 -4.1z m9.7 -30.5 c2.2 -2.5 6.1 -6.9 8.7 -9.8 2.6 -2.8 4.8 -5.4 4.8 -5.8 0 -0.5 0.9 -0.8 1.9 -0.8 1.1 0 2.1 -0.5 2.3 -1 0.6 -1.9 7.5 1.8 10.4 5.5 1.4 1.9 2.9 3.5 3.3 3.5 0.4 0 3.4 -3.3 6.8 -7.2 3.4 -4 7.6 -8.9 9.5 -10.8 1.8 -2 4.5 -4.9 5.9 -6.5 6 -7 10.7 -6.1 18.4 3.7 4.1 5.3 11.1 13.2 13.3 15.2 1.3 1.2 3 3.4 3.9 4.9 2.9 5.7 3.4 2.6 3.4 -20.8 -0.1 -20.3 -0.3 -23.1 -1.8 -24.2 -2.5 -1.9 -92.1 -1.8 -94.5 0.1 -1.6 1.2 -1.8 3.9 -1.8 30 0 15.7 0.4 28.6 0.8 28.6 0.4 0 2.5 -2.1 4.7 -4.6z"/>
  <path d="M84.9 184.3 c-2.2 -2.6 -2.9 -4.3 -2.9 -7.6 0.1 -4.6 1.8 -7.3 6.6 -10.1 2.9 -1.8 3.3 -1.8 6.7 -0.1 2.5 1.2 4 2.8 5.2 5.7 2 5.1 1.3 8.7 -2.6 12.7 -4.1 4.3 -8.9 4.1 -13 -0.6z"/>
  <path d="M34.9 212.2 c-12.7 -13.3 -22.9 -30.3 -28.8 -47.9 -2.6 -7.6 -2.6 -10.2 -0.3 -11 3.7 -1.3 9.8 -4.3 12.7 -6.3 1.7 -1.1 3.5 -2 4.1 -2 0.6 0 1.7 2.6 2.4 5.8 3.4 15.3 12.9 32.6 24.7 45.2 4.2 4.4 7.4 8.2 7.2 8.3 -0.2 0.2 -2.9 1.8 -5.9 3.7 -3 1.8 -6 3.8 -6.5 4.4 -4.6 4.9 -4.8 4.9 -9.6 -0.2z"/>
  <path d="M221 201.3 c-1.4 -0.9 -2.7 -2 -3 -2.3 -0.8 -1 -7.2 -4 -8.5 -4 -0.6 0 -1.9 -0.6 -2.9 -1.3 -1.7 -1.2 -1.7 -1.5 0.7 -4.3 4 -4.7 10.4 -15.7 13.7 -23.5 5.4 -12.8 7.1 -21 7.7 -37.9 l0.5 -15.5 5 0.1 c2.8 0.1 7.3 -0.4 10.1 -1.2 2.8 -0.7 5.3 -1.1 5.5 -0.9 1.2 1.2 1.3 20.5 0.3 29.2 -1.8 14 -4.6 24.2 -10 36.3 -4.2 9.5 -14.7 27 -16.1 27 -0.3 0 -1.7 -0.8 -3 -1.7z"/>
  <path d="M172.4 133.6 c-17.7 -4.3 -27 -21.7 -19.5 -36.5 6.8 -13.3 21.3 -20.9 37.8 -19.8 l8.3 0.5 0 -31.7 c0 -34.7 0 -34.6 6 -37.1 2.4 -1 3.9 -1 7.1 -0.1 4.9 1.5 6.9 4.4 7.6 11.3 l0.5 5.3 6.8 2.8 c7.3 3 12.8 7.8 15.6 13.6 2.5 5 2.6 19.3 0.3 21.7 -1.9 1.9 -2.8 1.2 -6.2 -5.1 -2.2 -4 -7.7 -7.6 -13.9 -9.1 l-2.8 -0.6 0 25.8 c0 35 -1 40 -9.2 48.3 -9.9 10.2 -24.2 14.1 -38.4 10.7z"/>
  <path d="M20 130 c-4.9 -4.9 -5 -5.7 -5 -57.8 0 -32.4 0.4 -49.9 1.1 -52 1.3 -3.7 6.8 -8.2 10.2 -8.2 1.3 0 4.4 1.1 6.8 2.4 6.6 3.5 14.7 8.1 26.2 15 4.3 2.5 8.1 4.6 8.6 4.6 0.5 0 3.2 1.6 6 3.5 2.8 1.9 5.5 3.5 6.1 3.5 0.5 0 1 0.4 1 1 0 0.5 1.2 1.3 2.8 1.6 1.5 0.4 3.4 1.2 4.2 1.9 2.1 1.6 17.4 10.6 23.3 13.6 15.4 7.7 15.3 17.8 -0.3 26.6 -10.2 5.8 -18.6 10.7 -20 11.8 -0.8 0.7 -3.1 1.8 -5 2.5 -1.9 0.8 -3.7 1.7 -4 2 -0.4 0.5 -4.7 3.1 -12.5 7.7 -1.1 0.7 -4.2 2.4 -7 3.9 -2.7 1.5 -5.3 3.2 -5.7 3.8 -0.4 0.6 -0.8 0.7 -0.8 0.3 0 -0.5 -1.4 0.2 -3.1 1.4 -1.7 1.2 -5.2 3.3 -7.7 4.6 -9.3 4.9 -10.2 5.4 -10.7 6.4 -0.4 0.5 -1.1 0.7 -1.6 0.4 -0.5 -0.4 -0.9 -0.2 -0.9 0.3 0 0.4 -2.2 0.9 -5 1.1 -3.9 0.1 -5.4 -0.3 -7 -1.9z"/>
  <path d="M166.5 30.5 c-12.7 -6.1 -22.7 -8 -41.5 -8 -13.6 0.1 -17.9 0.5 -24.2 2.2 l-7.8 2.1 0 -3.2 c0 -3.1 -1.6 -13.3 -2.6 -16.8 -0.6 -2.1 3 -3.2 16.6 -5.3 19.2 -3 38.2 -1.3 57.6 5 l11 3.6 0 11.9 c-0.1 7.4 -0.5 12 -1.1 11.9 -0.5 0 -4.1 -1.6 -8 -3.4z"/>
 </g>
</svg>