<svg width="12" height="14" viewBox="0 0 12 14" fill="none" xmlns="http://www.w3.org/2000/svg">
<path d="M3.27478e-08 1.96499C-4.6874e-05 1.78168 0.0502976 1.60187 0.145532 1.44523C0.240766 1.28859 0.377225 1.16115 0.539995 1.07682C0.702766 0.992494 0.885584 0.954532 1.06847 0.967084C1.25136 0.979636 1.42728 1.04222 1.577 1.14799L8.71 6.18299C8.84082 6.27533 8.94756 6.39773 9.02124 6.53991C9.09491 6.68208 9.13336 6.83987 9.13336 6.99999C9.13336 7.16012 9.09491 7.31791 9.02124 7.46008C8.94756 7.60225 8.84082 7.72466 8.71 7.81699L1.577 12.852C1.42728 12.9578 1.25136 13.0204 1.06847 13.0329C0.885584 13.0455 0.702766 13.0075 0.539995 12.9232C0.377225 12.8388 0.240766 12.7114 0.145532 12.5548C0.0502976 12.3981 -4.6874e-05 12.2183 3.27478e-08 12.035V1.96499Z" fill="#8A8E95"/>
<path d="M12 1.75C12 1.55109 11.921 1.36032 11.7803 1.21967C11.6397 1.07902 11.4489 1 11.25 1C11.0511 1 10.8603 1.07902 10.7197 1.21967C10.579 1.36032 10.5 1.55109 10.5 1.75V12.25C10.5 12.4489 10.579 12.6397 10.7197 12.7803C10.8603 12.921 11.0511 13 11.25 13C11.4489 13 11.6397 12.921 11.7803 12.7803C11.921 12.6397 12 12.4489 12 12.25V1.75Z" fill="#8A8E95"/>
</svg>
