<svg width="12" height="16" viewBox="0 0 12 16" fill="none" xmlns="http://www.w3.org/2000/svg">
<path d="M11.0456 2.59815H0.95444C0.428151 2.59815 0 2.97067 0 3.42858V4.09175H12V3.42858C12 2.97067 11.5719 2.59815 11.0456 2.59815Z" fill="#8A8E95"/>
<path d="M1.15963 14.2104C1.25566 15.2139 2.23759 16 3.39493 16H8.60501C9.76234 16 10.7443 15.2139 10.8404 14.2104L11.7393 4.82537H0.26073L1.15963 14.2104Z" fill="#8A8E95"/>
<path d="M4.2811 1.40617C4.2811 1.03537 4.62783 0.733684 5.054 0.733684H6.94591C7.37214 0.733684 7.71888 1.03537 7.71888 1.40617V2H8.56211V1.40617C8.56218 0.630842 7.83713 0 6.94591 0H5.054C4.1629 0 3.43786 0.630842 3.43786 1.40617V2H4.2811V1.40617Z" fill="#8A8E95"/>
</svg>
