<svg width="12" height="14" viewBox="0 0 12 14" fill="none" xmlns="http://www.w3.org/2000/svg">
<path d="M12 12.035C12 12.2183 11.9497 12.3981 11.8545 12.5548C11.7592 12.7114 11.6228 12.8388 11.46 12.9232C11.2972 13.0075 11.1144 13.0455 10.9315 13.0329C10.7486 13.0203 10.5727 12.9578 10.423 12.852L3.28998 7.81699C3.15916 7.72466 3.05242 7.60225 2.97875 7.46008C2.90508 7.31791 2.86662 7.16012 2.86662 6.99999C2.86662 6.83986 2.90508 6.68208 2.97875 6.5399C3.05242 6.39773 3.15916 6.27533 3.28998 6.18299L10.423 1.14799C10.5727 1.04222 10.7486 0.979634 10.9315 0.967082C11.1144 0.95453 11.2972 0.992493 11.46 1.07682C11.6228 1.16115 11.7592 1.28859 11.8545 1.44523C11.9497 1.60187 12 1.78167 12 1.96499L12 12.035Z" fill="#8A8E95"/>
<path d="M-1.52588e-05 12.25C-1.52588e-05 12.4489 0.0790027 12.6397 0.219655 12.7803C0.360307 12.921 0.551072 13 0.749985 13C0.948897 13 1.13966 12.921 1.28031 12.7803C1.42097 12.6397 1.49998 12.4489 1.49998 12.25L1.49998 1.74998C1.49998 1.55107 1.42097 1.36031 1.28031 1.21966C1.13966 1.079 0.948897 0.999985 0.749985 0.999985C0.551072 0.999985 0.360307 1.079 0.219655 1.21966C0.0790027 1.36031 -1.52588e-05 1.55107 -1.52588e-05 1.74998L-1.52588e-05 12.25Z" fill="#8A8E95"/>
</svg>
