<svg width="16" height="16" viewBox="0 0 16 16" fill="none" xmlns="http://www.w3.org/2000/svg">
<path d="M7.09798 3.72427L5.20649 3.72427C4.8021 3.72427 4.59339 3.22857 4.88689 2.93506L7.68499 0.13697C7.86762 -0.0456565 8.1546 -0.0456566 8.33723 0.13697L11.1353 2.93506C11.4288 3.22857 11.2201 3.72427 10.8157 3.72427L8.92424 3.72427L8.93729 5.55497C8.93729 6.06372 8.51985 6.48115 8.01111 6.48115C7.50236 6.48115 7.08493 6.06372 7.08493 5.55497L7.09798 3.72427Z" fill="#8A8E95"/>
<path d="M12.2757 7.09797L12.2757 5.20648C12.2757 4.8021 12.7714 4.59338 13.0649 4.88689L15.863 7.68498C16.0457 7.86761 16.0457 8.15459 15.863 8.33722L13.0649 11.1353C12.7714 11.4288 12.2757 11.2201 12.2757 10.8157V8.92423L10.445 8.93728C9.93629 8.93728 9.51885 8.51984 9.51885 8.0111C9.51885 7.50236 9.93629 7.08492 10.445 7.08492L12.2757 7.09797Z" fill="#8A8E95"/>
<path d="M8.92425 12.2757L10.8157 12.2757C11.2201 12.2757 11.4288 12.7714 11.1353 13.0649L8.33724 15.863C8.15461 16.0457 7.86762 16.0457 7.685 15.863L4.8869 13.0649C4.59339 12.7714 4.80211 12.2757 5.2065 12.2757L7.09798 12.2757L7.08494 10.445C7.08494 9.93629 7.50237 9.51885 8.01112 9.51885C8.51986 9.51885 8.93729 9.93629 8.93729 10.445L8.92425 12.2757Z" fill="#8A8E95"/>
<path d="M3.72427 8.92424L3.72427 10.8157C3.72427 11.2201 3.22857 11.4288 2.93506 11.1353L0.13697 8.33723C-0.0456565 8.1546 -0.0456566 7.86762 0.13697 7.68499L2.93506 4.8869C3.22857 4.59339 3.72427 4.80211 3.72427 5.2065L3.72427 7.09798L5.55498 7.08493C6.06372 7.08493 6.48115 7.50237 6.48115 8.01111C6.48115 8.51986 6.06372 8.93729 5.55498 8.93729L3.72427 8.92424Z" fill="#8A8E95"/>
</svg>
