<?xml version="1.0" encoding="utf-8"?>
<!-- Generator: Adobe Illustrator 22.0.1, SVG Export Plug-In . SVG Version: 6.00 Build 0)  -->
<svg version="1.1" id="Layer_1" xmlns="http://www.w3.org/2000/svg" xmlns:xlink="http://www.w3.org/1999/xlink" x="0px" y="0px"
	 viewBox="0 0 16 16" style="enable-background:new 0 0 16 16;" xml:space="preserve">
<style type="text/css">
	.st0{fill:#8A8E95;}
</style>
<path class="st0" d="M11.7,10.3H11l-0.3-0.3c1.1-1.3,1.7-3.1,1.4-5c-0.4-2.6-2.6-4.7-5.2-5C2.9-0.4-0.4,2.9,0,6.9
	c0.3,2.6,2.4,4.8,5,5.2c1.9,0.3,3.7-0.3,5-1.4l0.3,0.3v0.7l4,4c0.4,0.4,1,0.4,1.4,0l0,0c0.4-0.4,0.4-1,0-1.4L11.7,10.3z M6.1,10.3
	c-2.3,0-4.2-1.9-4.2-4.2c0-2.3,1.9-4.2,4.2-4.2c2.3,0,4.2,1.9,4.2,4.2C10.3,8.4,8.4,10.3,6.1,10.3z M4.2,4.2H8
	c0.3,0,0.5,0.9,0.5,2.1S8.2,8.5,8,8.5H4.2C4,8.5,3.8,7.6,3.8,6.4S4,4.2,4.2,4.2z"/>
</svg>
