<svg width="16" height="16" viewBox="0 0 16 16" fill="none" xmlns="http://www.w3.org/2000/svg">
<path fill-rule="evenodd" clip-rule="evenodd" d="M2.62861 15.2299C3.21421 14.6787 3.99136 14.386 4.78932 14.4163C5.09899 14.4161 5.40782 14.4489 5.71076 14.514C6.02904 14.7745 6.48944 14.7499 6.77908 14.457L7.15567 14.072L15.8225 3.90293C16.0791 3.57978 16.055 3.11232 15.7664 2.81825L13.2746 0.239382C12.9775 -0.0634003 12.5003 -0.0811643 12.1822 0.198706L2.28939 9.05793L2.24933 9.09317L2.22529 9.12028L1.87008 9.47552C1.58157 9.7696 1.55741 10.2371 1.814 10.5602C1.88877 10.8938 2.19324 12.594 1.11425 13.6896C1.03866 13.7715 1.0206 13.8922 1.06883 13.9933L0.0779461 14.9939C-0.0262163 15.1 -0.0259346 15.2717 0.0785094 15.3774C0.0986659 15.3978 0.121921 15.4149 0.147398 15.4278L1.21572 15.9702C1.25293 15.9895 1.29409 15.9997 1.33591 16L2.09709 15.4577L2.31612 15.2787C2.4196 15.3335 2.54614 15.3137 2.62861 15.2299ZM2.31878 10.365C2.34282 10.4518 2.86094 12.4449 1.67243 13.874L2.44695 14.6604C3.11008 14.1244 3.93947 13.8456 4.7866 13.8739C5.16334 13.8731 5.5389 13.9168 5.90569 14.0041C5.9506 14.0178 5.99176 14.042 6.02588 14.0746C6.13004 14.1798 6.2983 14.1798 6.40246 14.0746L6.5921 13.8848L2.43897 9.66807L2.25202 9.85788C2.20201 9.90907 2.17415 9.97835 2.17456 10.0504C2.17415 10.1238 2.20304 10.1943 2.25468 10.2457C2.28567 10.2793 2.30774 10.3203 2.31878 10.365Z" fill="#8A8E95"/>
</svg>
