<?xml version="1.0"?>
<svg xmlns="http://www.w3.org/2000/svg" xmlns:xlink="http://www.w3.org/1999/xlink" xmlns:svgjs="http://svgjs.com/svgjs" version="1.1" width="20" height="20" x="0" y="0" viewBox="0 0 24 24" style="enable-background:new 0 0 512 512" xml:space="preserve" class=""><g><path xmlns="http://www.w3.org/2000/svg" d="m11.5 7.017c-3.033 0-5.5 2.467-5.5 5.5s2.467 5.5 5.5 5.5 5.5-2.467 5.5-5.5-2.467-5.5-5.5-5.5zm0 9c-1.93 0-3.5-1.57-3.5-3.5s1.57-3.5 3.5-3.5 3.5 1.57 3.5 3.5-1.57 3.5-3.5 3.5z" fill="#939599" data-original="#000000" style="" class=""/><path xmlns="http://www.w3.org/2000/svg" d="m14.801 14.767c.256 0 .512.098.707.293l3.216 3.216c.391.39.391 1.023 0 1.414s-1.023.391-1.414 0l-3.216-3.216c-.391-.39-.391-1.023 0-1.414.195-.195.451-.293.707-.293z" fill="#939599" data-original="#000000" style="" class=""/><path xmlns="http://www.w3.org/2000/svg" d="m11.5 15.017c-.414 0-.75-.336-.75-.75v-3.5c0-.414.336-.75.75-.75s.75.336.75.75v3.5c0 .414-.336.75-.75.75z" fill="#939599" data-original="#000000" style="" class=""/><path xmlns="http://www.w3.org/2000/svg" d="m13.25 13.267h-3.5c-.414 0-.75-.336-.75-.75s.336-.75.75-.75h3.5c.414 0 .75.336.75.75s-.336.75-.75.75z" fill="#939599" data-original="#000000" style="" class=""/><path xmlns="http://www.w3.org/2000/svg" d="m21 1h-18c-1.654 0-3 1.346-3 3v16c0 1.654 1.346 3 3 3h18c1.654 0 3-1.346 3-3v-16c0-1.654-1.346-3-3-3zm0 20h-18c-.551 0-1-.448-1-1v-14h20v14c0 .552-.449 1-1 1z" fill="#939599" data-original="#000000" style="" class=""/></g></svg>
