<svg width="16" height="16" viewBox="0 0 16 16" fill="none" xmlns="http://www.w3.org/2000/svg">
<path d="M11.7252 10.3182H10.9842L10.7216 10.065C11.8471 8.75184 12.4287 6.96032 12.1098 5.05624C11.6689 2.44869 9.49284 0.366395 6.86652 0.0474853C2.89891 -0.440259 -0.440259 2.89891 0.0474853 6.86652C0.366395 9.49284 2.44869 11.6689 5.05624 12.1098C6.96032 12.4287 8.75184 11.8471 10.065 10.7216L10.3182 10.9842V11.7252L14.314 15.7116C14.6986 16.0961 15.3176 16.0961 15.7022 15.7116L15.7116 15.7022C16.0961 15.3176 16.0961 14.6986 15.7116 14.314L11.7252 10.3182ZM6.09739 10.3182C3.76184 10.3182 1.87653 8.43293 1.87653 6.09739C1.87653 3.76184 3.76184 1.87653 6.09739 1.87653C8.43293 1.87653 10.3182 3.76184 10.3182 6.09739C10.3182 8.43293 8.43293 10.3182 6.09739 10.3182ZM4.22145 5.6284H7.97333C8.23596 5.6284 8.44231 5.83476 8.44231 6.09739C8.44231 6.36002 8.23596 6.56637 7.97333 6.56637H4.22145C3.95882 6.56637 3.75246 6.36002 3.75246 6.09739C3.75246 5.83476 3.95882 5.6284 4.22145 5.6284Z" fill="#8A8E95"/>
</svg>
