<svg width="38" height="37" viewBox="0 0 38 37" fill="none" xmlns="http://www.w3.org/2000/svg">
<path d="M7.96151 23.4528L7.99062 20.2419L1.56884 20.1837L1.59751 17.0174L8.01938 17.0757L8.04847 13.8647C8.05468 13.1734 8.90523 12.8243 9.40237 13.3306L14.142 18.1569C14.4513 18.4719 14.4469 18.9625 14.1319 19.2718L9.30558 24.0114C8.79933 24.5085 7.95524 24.1441 7.96151 23.4528Z" fill="#939599"/>
<path d="M29.6594 13.557L29.6792 16.7677L36.1005 16.7281L36.1201 19.8942L29.6987 19.9337L29.7185 23.1445C29.7228 23.8357 28.8778 24.1977 28.373 23.6991L23.5609 18.946C23.2468 18.6358 23.2437 18.1452 23.554 17.8312L28.3071 13.0191C28.8057 12.5143 29.6551 12.8658 29.6594 13.557Z" fill="#939599"/>
<path d="M16 0.999999C16 0.447715 16.4477 0 17 0H21C21.5523 0 22 0.447715 22 1V36C22 36.5523 21.5523 37 21 37H17C16.4477 37 16 36.5523 16 36V0.999999Z" fill="#939599"/>
</svg>
