<svg width="16" height="16" viewBox="0 0 16 16" fill="none" xmlns="http://www.w3.org/2000/svg">
<path d="M15.8898 5.02806L11.1735 0.11482C11.0265 -0.038234 10.7882 -0.0383124 10.6413 0.11482L2.65796 8.4313C2.58736 8.50485 2.54777 8.60451 2.54777 8.70848C2.54777 8.79269 2.57487 8.87329 2.62221 8.94017L0.19336 11.4703C0.068643 11.6003 0 11.7729 0 11.9565C0 12.1403 0.068643 12.3129 0.193284 12.4427L2.96136 15.3263C3.37841 15.7608 3.93282 16 4.52254 16C5.11225 16 5.66666 15.7608 6.08371 15.3263L7.41804 13.9363C7.48232 13.9856 7.55969 14.0138 7.64045 14.0138C7.74026 14.0138 7.83599 13.9726 7.90659 13.899L15.8898 5.58248C15.9604 5.50894 16 5.40928 16 5.30531C16 5.20134 15.9604 5.1016 15.8898 5.02806ZM5.55151 14.772C5.27671 15.0582 4.91121 15.2159 4.52261 15.2159C4.13386 15.2159 3.76844 15.0582 3.49364 14.772L0.791126 11.9565L3.14968 9.49954L6.88116 13.3868L5.55151 14.772Z" fill="#8A8E95"/>
</svg>
