<svg width="14" height="16" viewBox="0 0 14 16" fill="none" xmlns="http://www.w3.org/2000/svg">
<path d="M13.9974 8.2168L13.995 8.21689V8.03918C13.995 7.33445 13.4304 6.76312 12.734 6.76312C12.0376 6.76312 11.473 7.33445 11.473 8.03918V6.63551C11.473 5.93078 10.9084 5.35945 10.212 5.35945C9.51556 5.35945 8.95096 5.93078 8.95096 6.63551V5.35945C8.95096 4.65473 8.34432 4.08339 7.6479 4.08339C6.95148 4.08339 6.34787 4.69726 6.34787 5.40199L6.34485 1.27606C6.34485 0.571334 5.78025 0 5.08383 0C4.38741 0 3.8228 0.571334 3.8228 1.27606V9.54918C3.8228 9.54918 2.5327 5.62887 0.717583 6.56286C0.0830374 6.88936 -0.182365 7.66427 0.133058 8.31021L2.47948 13.1153C2.47948 13.1153 3.92982 16 6.45918 16H9.8219C12.1434 16 14 14.0956 14 11.7465L13.9974 8.2168Z" fill="#8A8E95"/>
</svg>
