<svg width="9" height="18" viewBox="0 0 9 18" fill="none" xmlns="http://www.w3.org/2000/svg">
<path d="M6 16.5C6 15.6716 6.67157 15 7.5 15C8.32843 15 9 15.6716 9 16.5C9 17.3284 8.32843 18 7.5 18C6.67157 18 6 17.3284 6 16.5Z" fill="#8A8E95"/>
<path d="M0 16.5C7.24234e-08 15.6716 0.671573 15 1.5 15C2.32843 15 3 15.6716 3 16.5C3 17.3284 2.32843 18 1.5 18C0.671573 18 -7.24234e-08 17.3284 0 16.5Z" fill="#8A8E95"/>
<path d="M6 11.5C6 10.6716 6.67157 10 7.5 10C8.32843 10 9 10.6716 9 11.5C9 12.3284 8.32843 13 7.5 13C6.67157 13 6 12.3284 6 11.5Z" fill="#8A8E95"/>
<path d="M4.37114e-07 11.5C5.09537e-07 10.6716 0.671574 10 1.5 10C2.32843 10 3 10.6716 3 11.5C3 12.3284 2.32843 13 1.5 13C0.671573 13 3.6469e-07 12.3284 4.37114e-07 11.5Z" fill="#8A8E95"/>
<path d="M6 6.5C6 5.67157 6.67157 5 7.5 5C8.32843 5 9 5.67157 9 6.5C9 7.32843 8.32843 8 7.5 8C6.67157 8 6 7.32843 6 6.5Z" fill="#8A8E95"/>
<path d="M8.74228e-07 6.5C9.46651e-07 5.67157 0.671574 5 1.5 5C2.32843 5 3 5.67157 3 6.5C3 7.32843 2.32843 8 1.5 8C0.671574 8 8.01804e-07 7.32843 8.74228e-07 6.5Z" fill="#8A8E95"/>
<path d="M6 1.5C6 0.671573 6.67157 4.52113e-07 7.5 5.24537e-07C8.32843 5.9696e-07 9 0.671574 9 1.5C9 2.32843 8.32843 3 7.5 3C6.67157 3 6 2.32843 6 1.5Z" fill="#8A8E95"/>
<path d="M1.31134e-06 1.5C1.38377e-06 0.671573 0.671574 -7.24234e-08 1.5 0C2.32843 7.24234e-08 3 0.671573 3 1.5C3 2.32843 2.32843 3 1.5 3C0.671574 3 1.23892e-06 2.32843 1.31134e-06 1.5Z" fill="#8A8E95"/>
</svg>
