<svg width="16" height="16" viewBox="0 0 16 16" fill="none" xmlns="http://www.w3.org/2000/svg">
<path d="M11.7236 10.3182H10.9826L10.72 10.065C11.8455 8.75184 12.4271 6.96032 12.1082 5.05624C11.6673 2.44869 9.49124 0.366395 6.86492 0.0474853C2.89731 -0.440259 -0.432479 2.89891 0.0458856 6.86652C0.364795 9.49284 2.44709 11.6689 5.05464 12.1098C6.95872 12.4287 8.75024 11.8471 10.0634 10.7216L10.3167 10.9842V11.7252L14.3124 15.7116C14.697 16.0961 15.316 16.0961 15.7006 15.7116L15.71 15.7022C16.0945 15.3176 16.0945 14.6986 15.71 14.314L11.7236 10.3182ZM6.09579 10.3182C3.76024 10.3182 1.87493 8.43293 1.87493 6.09739C1.87493 3.76184 3.76024 1.87653 6.09579 1.87653C8.43133 1.87653 10.3167 3.76184 10.3167 6.09739C10.3167 8.43293 8.43133 10.3182 6.09579 10.3182ZM6.09579 3.75246C5.83316 3.75246 5.6268 3.95882 5.6268 4.22145V5.6284H4.21985C3.95722 5.6284 3.75086 5.83476 3.75086 6.09739C3.75086 6.36002 3.95722 6.56637 4.21985 6.56637H5.6268V7.97333C5.6268 8.23596 5.83316 8.44231 6.09579 8.44231C6.35842 8.44231 6.56477 8.23596 6.56477 7.97333V6.56637H7.97173C8.23436 6.56637 8.44071 6.36002 8.44071 6.09739C8.44071 5.83476 8.23436 5.6284 7.97173 5.6284H6.56477V4.22145C6.56477 3.95882 6.35842 3.75246 6.09579 3.75246Z" fill="#8A8E95"/>
</svg>
