<svg width="81" height="71" viewBox="0 0 81 71" fill="none" xmlns="http://www.w3.org/2000/svg">
<path d="M40.244 46.3747C43.0114 46.3747 45.6654 45.2878 47.6222 43.3531C49.579 41.4184 50.6783 38.7943 50.6783 36.0582C50.6783 35.7561 50.6643 35.4567 50.6382 35.161L39.3366 46.3351C39.6357 46.3609 39.9375 46.3747 40.244 46.3747ZM74.7814 4.14699L70.8015 0.21566C70.6617 0.07757 70.4722 0 70.2747 0C70.0771 0 69.8876 0.07757 69.7478 0.21566L59.5632 10.2881C53.9449 7.4492 47.6294 6.02976 40.6167 6.02976C22.7108 6.02976 9.35119 15.2501 0.537972 33.6909C0.183723 34.4326 0 35.2426 0 36.0628C0 36.883 0.183723 37.693 0.537972 38.4347C4.05953 45.7686 8.3 51.6469 13.2594 56.0695L3.40367 65.8103C3.264 65.9485 3.18554 66.1358 3.18554 66.3312C3.18554 66.5266 3.264 66.7139 3.40367 66.8521L7.38079 70.7843C7.52055 70.9224 7.71005 71 7.90763 71C8.10521 71 8.29471 70.9224 8.43447 70.7843L74.7814 5.1897C74.8507 5.12126 74.9057 5.03999 74.9432 4.95053C74.9807 4.86107 75 4.76518 75 4.66834C75 4.5715 74.9807 4.47561 74.9432 4.38616C74.9057 4.2967 74.8507 4.21543 74.7814 4.14699ZM23.8473 36.0582C23.8471 33.2581 24.5804 30.5056 25.9758 28.0689C27.3713 25.6323 29.3812 23.5945 31.8099 22.1542C34.2386 20.7139 37.0033 19.9201 39.8345 19.8501C42.6657 19.7802 45.467 20.4365 47.9654 21.7551L43.4358 26.2336C41.6091 25.6552 39.6565 25.5856 37.7924 26.0322C35.9282 26.4789 34.2245 27.4246 32.8682 28.7656C31.5119 30.1066 30.5554 31.7911 30.1037 33.6342C29.6519 35.4773 29.7224 37.4078 30.3073 39.2139L25.7777 43.6924C24.5066 41.3443 23.8434 38.7215 23.8473 36.0582Z" fill="#939599"/>
<path d="M80.4642 33.6673C77.1989 26.8539 73.3124 21.2982 68.8046 17L55.4334 30.2483C56.5606 33.1674 56.8104 36.3474 56.1528 39.4041C55.4951 42.4609 53.9581 45.2635 51.7275 47.4735C49.4969 49.6835 46.668 51.2062 43.5828 51.8578C40.4975 52.5094 37.2878 52.2618 34.3415 51.1451L23 62.3816C28.2616 64.7939 34.1139 66 40.5567 66C58.3862 66 71.6887 56.8002 80.4642 38.4005C80.817 37.6605 81 36.8522 81 36.0339C81 35.2155 80.817 34.4072 80.4642 33.6673V33.6673Z" fill="#939599"/>
</svg>
