<svg width="16" height="16" viewBox="0 0 16 16" fill="none" xmlns="http://www.w3.org/2000/svg">
<path d="M2 0.5H14C14.8284 0.5 15.5 1.17157 15.5 2V14C15.5 14.8284 14.8284 15.5 14 15.5H2C1.17157 15.5 0.5 14.8284 0.5 14V2C0.5 1.17157 1.17157 0.5 2 0.5Z" stroke="#939599"/>
<rect x="11" y="3" width="2" height="10" rx="1" fill="#939599"/>
<path d="M4.31108 7.7739L5.62216 9.08498L3 11.7071L4.29287 13L6.91502 10.3778L8.2261 11.6889C8.50835 11.9712 9 11.7709 9 11.3612V7.45524C9 7.2003 8.7997 7 8.54476 7H4.63885C4.22914 7 4.02883 7.49165 4.31108 7.7739Z" fill="#939599"/>
</svg>
