<?xml version="1.0" encoding="utf-8"?>
<!-- Generator: Adobe Illustrator 22.0.1, SVG Export Plug-In . SVG Version: 6.00 Build 0)  -->
<svg version="1.1" id="Layer_1" xmlns="http://www.w3.org/2000/svg" xmlns:xlink="http://www.w3.org/1999/xlink" x="0px" y="0px"
	 viewBox="0 0 16 16" style="enable-background:new 0 0 16 16;" xml:space="preserve">
<style type="text/css">
	.st0{fill:#8A8E95;}
</style>
<path class="st0" d="M11.2,10.2h-0.6l-0.2-0.2c0.9-1.1,1.4-2.5,1.1-4.1C11.1,3.7,9.4,2,7.2,1.8C4,1.4,1.3,4.1,1.7,7.3
	c0.3,2.1,2,3.9,4.1,4.3c1.6,0.3,3-0.2,4.1-1.1l0.2,0.2v0.6l3.3,3.2c0.3,0.3,0.8,0.3,1.1,0l0,0c0.3-0.3,0.3-0.8,0-1.1L11.2,10.2z
	 M6.6,10.2c-1.9,0-3.4-1.5-3.4-3.4c0-1.9,1.5-3.4,3.4-3.4c1.9,0,3.4,1.5,3.4,3.4C10,8.6,8.5,10.2,6.6,10.2z"/>
</svg>
