<?xml version="1.0"?>
<svg xmlns="http://www.w3.org/2000/svg" xmlns:xlink="http://www.w3.org/1999/xlink" xmlns:svgjs="http://svgjs.com/svgjs" version="1.1" width="512" height="512" x="0" y="0" viewBox="0 0 480 480" style="enable-background:new 0 0 512 512" xml:space="preserve" class=""><g><path xmlns="http://www.w3.org/2000/svg" d="m216.019531 96c-106.039062 0-192 85.960938-192 192s85.960938 192 192 192c106.039063 0 192-85.960938 192-192-.140625-105.980469-86.019531-191.859375-192-192zm0 352c-88.363281 0-160-71.632812-160-160s71.636719-160 160-160c88.367188 0 160 71.632812 160 160-.101562 88.324219-71.675781 159.898438-160 160zm0 0" fill="#939599" data-original="#000000" style="" class=""/><path xmlns="http://www.w3.org/2000/svg" d="m336.019531 280h23.59375c-1.773437-32.574219-14.609375-63.566406-36.394531-87.847656l-16.695312 16.648437c-3.15625 2.902344-8.042969 2.804688-11.074219-.230469-3.03125-3.03125-3.132813-7.917968-.230469-11.074218l16.65625-16.65625c-24.277344-21.796875-55.273438-34.652344-87.855469-36.433594v23.59375c0 4.417969-3.582031 8-8 8s-8-3.582031-8-8v-23.59375c-32.578125 1.785156-63.570312 14.636719-87.847656 36.433594l16.648437 16.65625c2.160157 1.988281 3.058594 5.003906 2.335938 7.851562-.71875 2.84375-2.941406 5.070313-5.789062 5.789063-2.847657.722656-5.863282-.175781-7.851563-2.335938l-16.65625-16.65625c-21.796875 24.277344-34.652344 55.273438-36.429687 87.855469h23.589843c4.417969 0 8 3.582031 8 8s-3.582031 8-8 8h-23.589843c1.78125 32.578125 14.632812 63.570312 36.429687 87.847656l16.65625-16.648437c3.15625-2.902344 8.042969-2.804688 11.074219.230469 3.035156 3.03125 3.136718 7.917968.230468 11.074218l-16.648437 16.695313c24.28125 21.785156 55.273437 34.621093 87.847656 36.394531v-23.59375c0-4.417969 3.582031-8 8-8s8 3.582031 8 8v23.59375c32.574219-1.773438 63.566407-14.609375 87.847657-36.394531l-16.648438-16.695313c-2.902344-3.15625-2.800781-8.042968.230469-11.074218 3.03125-3.035157 7.917969-3.132813 11.074219-.230469l16.695312 16.648437c21.785156-24.28125 34.621094-55.273437 36.394531-87.847656h-23.59375c-4.417969 0-8-3.582031-8-8s3.582031-8 8-8zm-58.34375-42.34375-40.054687 40.070312c1.5625 3.199219 2.382812 6.710938 2.398437 10.273438 0 13.253906-10.746093 24-24 24-13.253906 0-24-10.746094-24-24s10.746094-24 24-24c3.5625.015625 7.074219.835938 10.273438 2.398438l40.070312-40.070313c3.140625-3.03125 8.128907-2.988281 11.214844.097656 3.085937 3.085938 3.128906 8.074219.097656 11.214844zm0 0" fill="#939599" data-original="#000000" style="" class=""/><path xmlns="http://www.w3.org/2000/svg" d="m429.699219 130.320312-56-56c-3.144531-3.121093-8.214844-3.121093-11.359375 0l-24 24c-3.121094 3.144532-3.121094 8.214844 0 11.359376l10.320312 10.320312-4.410156 4.40625c13.328125 10.457031 25.335938 22.488281 35.769531 35.832031l4.609375-4.308593 9.710938 9.75c3.15625 3.09375 8.207031 3.09375 11.359375 0l24-24c3.121093-3.144532 3.121093-8.214844 0-11.359376zm0 0" fill="#939599" data-original="#000000" style="" class=""/><path xmlns="http://www.w3.org/2000/svg" d="m152.019531 64h40v17.425781c15.945313-1.902343 32.058594-1.902343 48 0v-17.425781h40c4.417969 0 8-3.582031 8-8v-48c0-4.417969-3.582031-8-8-8h-128c-4.417969 0-8 3.582031-8 8v48c0 4.417969 3.582031 8 8 8zm0 0" fill="#939599" data-original="#000000" style="" class=""/><path xmlns="http://www.w3.org/2000/svg" d="m32.019531 168c2.121094-.007812 4.160157-.839844 5.679688-2.320312l9.753906-9.75 4.605469 4.308593c10.421875-13.339843 22.417968-25.371093 35.730468-35.832031l-4.410156-4.40625 10.320313-10.320312c3.121093-3.144532 3.121093-8.214844 0-11.359376l-24-24c-3.144531-3.121093-8.214844-3.121093-11.359375 0l-56 56c-3.121094 3.144532-3.121094 8.214844 0 11.359376l24 24c1.519531 1.480468 3.558594 2.3125 5.679687 2.320312zm0 0" fill="#939599" data-original="#000000" style="" class=""/></g></svg>
