<svg width="16" height="16" viewBox="0 0 16 16" fill="none" xmlns="http://www.w3.org/2000/svg">
<path d="M11.4222 0.755555L12.7111 2.04444L10.7733 3.96444C10.4267 4.31111 10.4267 4.88 10.7733 5.22667C11.12 5.57333 11.6889 5.57333 12.0356 5.22667L13.9556 3.28889L15.2444 4.57778C15.52 4.85333 16 4.65778 16 4.25778V0.444444C16 0.195556 15.8044 0 15.5556 0H11.7422C11.3422 0 11.1467 0.48 11.4222 0.755555ZM0.755555 4.57778L2.04444 3.28889L3.96444 5.22667C4.31111 5.57333 4.88 5.57333 5.22667 5.22667C5.57333 4.88 5.57333 4.31111 5.22667 3.96444L3.28889 2.04444L4.57778 0.755555C4.85333 0.48 4.65778 0 4.25778 0H0.444444C0.195556 0 0 0.195556 0 0.444444V4.25778C0 4.65778 0.48 4.85333 0.755555 4.57778ZM4.57778 15.2444L3.28889 13.9556L5.22667 12.0356C5.57333 11.6889 5.57333 11.12 5.22667 10.7733C4.88 10.4267 4.31111 10.4267 3.96444 10.7733L2.04444 12.7111L0.755555 11.4222C0.48 11.1467 0 11.3422 0 11.7422V15.5556C0 15.8044 0.195556 16 0.444444 16H4.25778C4.65778 16 4.85333 15.52 4.57778 15.2444ZM15.2444 11.4222L13.9556 12.7111L12.0356 10.7733C11.6889 10.4267 11.12 10.4267 10.7733 10.7733C10.4267 11.12 10.4267 11.6889 10.7733 12.0356L12.7111 13.9556L11.4222 15.2444C11.1467 15.52 11.3422 16 11.7422 16H15.5556C15.8044 16 16 15.8044 16 15.5556V11.7422C16 11.3422 15.52 11.1467 15.2444 11.4222Z" fill="#8A8E95"/>
</svg>
