<svg width="48" height="44" viewBox="0 0 48 44" fill="none" xmlns="http://www.w3.org/2000/svg">
<path d="M6.69526 18.5525L6.69151 21.7635L13.1136 21.771L13.1099 24.9374L6.68776 24.9299L6.68404 28.1409C6.68329 28.8323 5.83553 29.1881 5.3344 28.6858L0.556827 23.897C0.244997 23.5845 0.245571 23.0939 0.55813 22.7821L5.34682 18.0046C5.84913 17.5034 6.69607 17.8612 6.69526 18.5525Z" fill="#939599"/>
<path d="M41.0238 28.1379L41.0109 24.9272L34.5895 24.953L34.5767 21.7869L40.9982 21.7611L40.9853 18.5504C40.9825 17.8591 41.8283 17.4989 42.332 17.9986L47.1339 22.7621C47.4473 23.073 47.4493 23.5635 47.1384 23.8769L42.3749 28.6788C41.8753 29.1825 41.0266 28.8291 41.0238 28.1379Z" fill="#939599"/>
<path d="M17 0.999999C17 0.447714 17.4477 0 18 0H22C22.5523 0 23 0.447715 23 1V43C23 43.5523 22.5523 44 22 44H18C17.4477 44 17 43.5523 17 43V0.999999Z" fill="#939599"/>
<path d="M25 0.999999C25 0.447714 25.4477 0 26 0H30C30.5523 0 31 0.447715 31 1V43C31 43.5523 30.5523 44 30 44H26C25.4477 44 25 43.5523 25 43V0.999999Z" fill="#939599"/>
</svg>
