<svg width="83" height="62" viewBox="0 0 83 62" fill="none" xmlns="http://www.w3.org/2000/svg">
<path d="M30.4581 31C30.4581 33.8246 31.5813 36.5336 33.5806 38.5309C35.58 40.5282 38.2917 41.6503 41.1192 41.6503C43.9467 41.6503 46.6585 40.5282 48.6578 38.5309C50.6572 36.5336 51.7804 33.8246 51.7804 31C51.7804 28.1754 50.6572 25.4664 48.6578 23.4691C46.6585 21.4718 43.9467 20.3497 41.1192 20.3497C38.2917 20.3497 35.58 21.4718 33.5806 23.4691C31.5813 25.4664 30.4581 28.1754 30.4581 31ZM82.4503 28.5466C73.4264 9.55675 59.7858 0 41.5 0C23.2047 0 9.57359 9.55675 0.549672 28.5561C0.187719 29.3218 0 30.158 0 31.0048C0 31.8515 0.187719 32.6877 0.549672 33.4534C9.57359 52.4432 23.2142 62 41.5 62C59.7953 62 73.4264 52.4433 82.4503 33.4439C83.1832 31.9034 83.1832 30.1156 82.4503 28.5466ZM41.1192 47.7362C31.8669 47.7362 24.366 40.2429 24.366 31C24.366 21.7571 31.8669 14.2638 41.1192 14.2638C50.3716 14.2638 57.8725 21.7571 57.8725 31C57.8725 40.2429 50.3716 47.7362 41.1192 47.7362Z" fill="#939599"/>
</svg>
