<?xml version="1.0" encoding="utf-8"?>
<!-- Generator: Adobe Illustrator 22.0.1, SVG Export Plug-In . SVG Version: 6.00 Build 0)  -->
<svg version="1.1" id="Layer_1" xmlns="http://www.w3.org/2000/svg" xmlns:xlink="http://www.w3.org/1999/xlink" x="0px" y="0px"
	 viewBox="0 0 14 16" style="enable-background:new 0 0 14 16;" xml:space="preserve">
<style type="text/css">
	.st0{fill:#8A8E95;}
</style>
<g>
	<g>
		<path class="st0" d="M13,2H6.8C6.3,2,6,2.4,6,2.9v2.8c0,0.5,0.4,0.8,0.8,0.8H13c0.5,0,0.8-0.4,0.8-0.8V2.9C13.9,2.4,13.5,2,13,2z"
			/>
		<circle class="st0" cx="2.6" cy="3.4" r="1.4"/>
		<circle class="st0" cx="2" cy="12.1" r="1.1"/>
		<circle class="st0" cx="6.9" cy="12.1" r="1.1"/>
		<path class="st0" d="M0.1,12.1c0-1,0.9-1.9,1.9-1.9c0,0,0,0,0,0c0.2-0.3,0.5-0.6,0.8-0.9c-0.2-0.3-0.3-0.7-0.3-1
			c0-1,0.9-1.9,1.9-1.9c0.2,0,0.4,0,0.6,0.1C5,5.9,4.6,5.3,4.1,5C3.7,5.3,3.2,5.6,2.6,5.6C2,5.6,1.5,5.3,1.1,5C0.4,5.4,0,6.2,0,7.1
			v6.5c0.1-0.1,0.3-0.3,0.4-0.4C0.2,12.9,0.1,12.5,0.1,12.1L0.1,12.1z"/>
		<path class="st0" d="M12.8,13.8c-0.3,0.2-0.6,0.3-1,0.3c-0.4,0-0.7-0.1-1-0.3c-0.6,0.3-1,1-1,1.8v0.4h3.7c0.2,0,0.4-0.2,0.4-0.4
			C13.9,14.8,13.4,14.1,12.8,13.8z"/>
		<path class="st0" d="M3,13.8C2.7,13.9,2.4,14,2,14s-0.7-0.1-1-0.3c-0.6,0.3-1,1-1,1.8c0,0.2,0.2,0.4,0.4,0.4h3.7v-0.4
			C4.1,14.8,3.7,14.1,3,13.8z"/>
		<path class="st0" d="M7.9,13.8c-0.3,0.2-0.6,0.3-1,0.3s-0.7-0.1-1-0.3c-0.6,0.3-1,1-1,1.8v0.4H9v-0.4C9,14.8,8.5,14.1,7.9,13.8z"
			/>
		<circle class="st0" cx="11.8" cy="12.1" r="1.1"/>
		<circle class="st0" cx="9.4" cy="8.3" r="1.1"/>
		<path class="st0" d="M5.5,10c-0.3,0.2-0.6,0.3-1,0.3c-0.4,0-0.7-0.1-1-0.3c-0.2,0.1-0.4,0.3-0.6,0.5c0.6,0.3,1,1,1,1.7H5
			c0-0.7,0.4-1.4,1-1.7C5.9,10.3,5.7,10.1,5.5,10L5.5,10z"/>
		<path class="st0" d="M7.8,10.5c0.6,0.3,1,1,1,1.7h1.1c0-0.7,0.4-1.4,1-1.7c-0.2-0.2-0.4-0.4-0.6-0.5c-0.3,0.2-0.6,0.3-1,0.3
			c-0.4,0-0.7-0.1-1-0.3C8.2,10.1,8,10.3,7.8,10.5L7.8,10.5z"/>
		<circle class="st0" cx="4.5" cy="8.3" r="1.1"/>
	</g>
</g>
</svg>
